<?xml version="1.0" encoding="utf-8"?>
<!-- Generator: Adobe Illustrator 19.2.1, SVG Export Plug-In . SVG Version: 6.00 Build 0)  -->
<svg version="1.1" id="Layer_1" xmlns="http://www.w3.org/2000/svg" xmlns:xlink="http://www.w3.org/1999/xlink" x="0px" y="0px"
	 viewBox="0 0 512 512" style="enable-background:new 0 0 512 512;" xml:space="preserve">
<style type="text/css">
	.st0{fill:#FFFFFF;}
</style>
<g>
	<g>
		<g>
			<path class="st0" d="M366.9,477.9H128c-4.7,0-8.5,3.8-8.5,8.5v17.1c0,4.7,3.8,8.5,8.5,8.5c4.7,0,8.5-3.8,8.5-8.5v-8.5h230.4
				c4.7,0,8.5-3.8,8.5-8.5S371.6,477.9,366.9,477.9z"/>
			<path class="st0" d="M187.7,213.3c0,4.7,3.8,8.5,8.5,8.5h34.1c4.7,0,8.5-3.8,8.5-8.5v-51.2c0-4.7-3.8-8.5-8.5-8.5h-34.1
				c-4.7,0-8.5,3.8-8.5,8.5L187.7,213.3L187.7,213.3z M204.8,170.7h17.1v34.1h-17.1V170.7z"/>
			<path class="st0" d="M110.9,102.4H8.5c-4.7,0-8.5,3.8-8.5,8.5v170.7c0,4.7,3.8,8.5,8.5,8.5s8.5-3.8,8.5-8.5V119.5h93.9
				c4.7,0,8.5-3.8,8.5-8.5S115.6,102.4,110.9,102.4z"/>
			<path class="st0" d="M409.6,418.1c0,4.7,3.8,8.5,8.5,8.5h34.1c4.7,0,8.5-3.8,8.5-8.5v-51.2c0-4.7-3.8-8.5-8.5-8.5h-34.1
				c-4.7,0-8.5,3.8-8.5,8.5V418.1z M426.7,375.5h17.1v34.1h-17.1V375.5z"/>
			<path class="st0" d="M42.7,307.2C0.5,307.2,0,417,0,418.1c0,20.6,14.7,37.8,34.1,41.8v43.5c0,4.7,3.8,8.5,8.5,8.5
				s8.5-3.8,8.5-8.5v-43.5c19.4-4,34.1-21.2,34.1-41.8C85.3,417,84.8,307.2,42.7,307.2z M42.7,443.7c-14.1,0-25.6-11.5-25.6-25.6
				c0-42.5,11.4-93.9,25.6-93.9s25.6,51.4,25.6,93.9C68.3,432.2,56.8,443.7,42.7,443.7z"/>
			<path class="st0" d="M93.9,256H59.7c-4.7,0-8.5,3.8-8.5,8.5v17.1c0,4.7,3.8,8.5,8.5,8.5s8.5-3.8,8.5-8.5v-8.5h17.1v42.7
				c0,4.7,3.8,8.5,8.5,8.5s8.5-3.8,8.5-8.5v-51.2C102.4,259.8,98.6,256,93.9,256z"/>
			<path class="st0" d="M418.1,221.9h34.1c4.7,0,8.5-3.8,8.5-8.5v-51.2c0-4.7-3.8-8.5-8.5-8.5h-34.1c-4.7,0-8.5,3.8-8.5,8.5v51.2
				C409.6,218,413.4,221.9,418.1,221.9z M426.7,170.7h17.1v34.1h-17.1V170.7z"/>
			<path class="st0" d="M93.9,153.6H59.7c-4.7,0-8.5,3.8-8.5,8.5v51.2c0,4.7,3.8,8.5,8.5,8.5h34.1c4.7,0,8.5-3.8,8.5-8.5v-51.2
				C102.4,157.4,98.6,153.6,93.9,153.6z M85.3,204.8H68.3v-34.1h17.1L85.3,204.8L85.3,204.8z"/>
			<path class="st0" d="M273.1,213.3c0,4.7,3.8,8.5,8.5,8.5h34.1c4.7,0,8.5-3.8,8.5-8.5v-51.2c0-4.7-3.8-8.5-8.5-8.5h-34.1
				c-4.7,0-8.5,3.8-8.5,8.5L273.1,213.3L273.1,213.3z M290.1,170.7h17.1v34.1h-17.1L290.1,170.7L290.1,170.7z"/>
			<path class="st0" d="M503.5,102.4H401.1c-4.7,0-8.5,3.8-8.5,8.5s3.8,8.5,8.5,8.5h93.9v342.9c-2.7-1-5.5-1.6-8.5-1.6
				c-1.5,0-2.9,0.1-4.4,0.4c-5.9-10.6-17.1-17.5-29.7-17.5s-23.9,6.8-29.7,17.5c-1.4-0.3-2.9-0.4-4.4-0.4
				c-14.1,0-25.6,11.5-25.6,25.6S404,512,418.1,512h68.3c14.1,0,25.6-11.5,25.6-25.6V110.9C512,106.2,508.2,102.4,503.5,102.4z
				 M486.4,494.9h-68.3c-4.7,0-8.5-3.8-8.5-8.5s3.8-8.5,8.5-8.5c1.6,0,3.2,0.5,4.6,1.4c2.3,1.5,5.3,1.8,7.8,0.7c2.6-1,4.5-3.3,5.1-6
				c1.8-7.8,8.6-13.2,16.6-13.2s14.8,5.4,16.6,13.2c0.6,2.7,2.5,4.9,5.1,6c2.6,1,5.5,0.8,7.8-0.7c5.6-3.6,13.2,0.8,13.2,7.1
				C494.9,491.1,491.1,494.9,486.4,494.9z"/>
			<path class="st0" d="M281.6,119.5h34.1c4.7,0,8.5-3.8,8.5-8.5V59.7c0-4.7-3.8-8.5-8.5-8.5h-34.1c-4.7,0-8.5,3.8-8.5,8.5v51.2
				C273.1,115.6,276.9,119.5,281.6,119.5z M290.1,68.3h17.1v34.1h-17.1L290.1,68.3L290.1,68.3z"/>
			<path class="st0" d="M273.1,315.7c0,4.7,3.8,8.5,8.5,8.5h34.1c4.7,0,8.5-3.8,8.5-8.5v-51.2c0-4.7-3.8-8.5-8.5-8.5h-34.1
				c-4.7,0-8.5,3.8-8.5,8.5L273.1,315.7L273.1,315.7z M290.1,273.1h17.1v34.1h-17.1L290.1,273.1L290.1,273.1z"/>
			<path class="st0" d="M196.3,119.5h34.1c4.7,0,8.5-3.8,8.5-8.5V59.7c0-4.7-3.8-8.5-8.5-8.5h-34.1c-4.7,0-8.5,3.8-8.5,8.5v51.2
				C187.7,115.6,191.6,119.5,196.3,119.5z M204.8,68.3h17.1v34.1h-17.1V68.3z"/>
			<path class="st0" d="M249.9,412.1c-1.5,1.6-2.5,3.8-2.5,6.1s0.9,4.4,2.5,6.1c1.6,1.5,3.8,2.5,6.1,2.5c2.2,0,4.4-0.9,6.1-2.5
				c1.5-1.6,2.5-3.8,2.5-6.1s-0.9-4.4-2.5-6.1C258.8,408.9,253.2,408.9,249.9,412.1z"/>
			<path class="st0" d="M187.7,315.7c0,4.7,3.8,8.5,8.5,8.5h34.1c4.7,0,8.5-3.8,8.5-8.5v-51.2c0-4.7-3.8-8.5-8.5-8.5h-34.1
				c-4.7,0-8.5,3.8-8.5,8.5L187.7,315.7L187.7,315.7z M204.8,273.1h17.1v34.1h-17.1V273.1z"/>
			<path class="st0" d="M170.7,366.9c0,4.7,3.8,8.5,8.5,8.5h25.6v76.8c0,4.7,3.8,8.5,8.5,8.5s8.5-3.8,8.5-8.5v-76.8h68.3v76.8
				c0,4.7,3.8,8.5,8.5,8.5s8.5-3.8,8.5-8.5v-76.8h25.6c4.7,0,8.5-3.8,8.5-8.5s-3.8-8.5-8.5-8.5H179.2
				C174.5,358.4,170.7,362.2,170.7,366.9z"/>
			<path class="st0" d="M409.6,315.7c0,4.7,3.8,8.5,8.5,8.5h34.1c4.7,0,8.5-3.8,8.5-8.5v-51.2c0-4.7-3.8-8.5-8.5-8.5h-34.1
				c-4.7,0-8.5,3.8-8.5,8.5V315.7z M426.7,273.1h17.1v34.1h-17.1V273.1z"/>
			<path class="st0" d="M366.9,0H145.1c-4.7,0-8.5,3.8-8.5,8.5v443.7c0,4.7,3.8,8.5,8.5,8.5s8.5-3.8,8.5-8.5V17.1h204.8v435.2
				c0,4.7,3.8,8.5,8.5,8.5s8.5-3.8,8.5-8.5V8.5C375.5,3.8,371.6,0,366.9,0z"/>
		</g>
	</g>
</g>
</svg>
