<?xml version="1.0" encoding="utf-8"?>
<!-- Generator: Adobe Illustrator 19.2.1, SVG Export Plug-In . SVG Version: 6.00 Build 0)  -->
<svg version="1.1" id="Слой_1" xmlns="http://www.w3.org/2000/svg" xmlns:xlink="http://www.w3.org/1999/xlink" x="0px" y="0px"
	 viewBox="0 0 480 480" style="enable-background:new 0 0 480 480;" xml:space="preserve">
<style type="text/css">
	.st0{fill:#FFFFFF;}
</style>
<path class="st0" d="M432,456c0,4.4-3.6,8-8,8h-80v-27.4c-0.1-25.2-16.9-47.3-41.3-54L256,369.9v-12.1c15-10.4,23.9-27.5,24-45.8
	v-15.1c2-0.9,3.3-1.6,3.6-1.7c2.7-1.4,4.4-4.1,4.4-7.2v-48l42.9-16.5c3.1-1.2,5.1-4.2,5.1-7.5s-2-6.3-5.1-7.5l-104-40
	c-1.8-0.7-3.9-0.7-5.7,0l-104,40c-3.1,1.2-5.1,4.1-5.1,7.4v36.7l-21.7,21.7l11.3,11.3l10.3-10.3V288h16v-12.7l10.3,10.3l11.3-11.3
	L128,252.7v-25l32,12.4v48c0,3,1.7,5.8,4.4,7.2c0.2,0.1,1.5,0.8,3.6,1.7V312c-0.1,18.3,8.9,35.5,24,45.8v12.1l-46.8,12.7
	c-24.3,6.7-41.2,28.8-41.2,54V464H24c-4.4,0-8-3.6-8-8V144h224v-16H16V88c0-4.4,3.6-8,8-8h216V64H24C10.7,64,0,74.7,0,88v368
	c0,13.3,10.7,24,24,24h400c13.3,0,24-10.7,24-24V160h-16V456z M208,376v-10.4c10.4,3.2,21.6,3.2,32,0V376c0,2.3,1,4.5,2.8,5.9
	L224,397.6L205.2,382C207,380.5,208,378.3,208,376z M224,184.6l81.7,31.4L224,247.4L142.3,216L224,184.6z M221.1,263.5
	c1.8,0.7,3.9,0.7,5.7,0l45.1-17.4v36.8c-15.1,7.3-31.3,11.7-48,13.1c-16.7-1.4-32.9-5.9-48-13.1v-36.8L221.1,263.5z M184,312v-8.6
	c12.8,5,26.3,7.9,40,8.6c13.7-0.6,27.2-3.5,40-8.6v8.6c0,14.3-7.7,27.5-20.1,34.6s-27.6,7.1-40-0.1c-3-1.7-5.8-3.8-8.2-6.3
	C188.2,332.8,183.9,322.6,184,312z M120,436.6c0.1-18,12.1-33.8,29.5-38.6l37.7-10.3l31.7,26.4c3,2.5,7.3,2.5,10.2,0l31.7-26.4
	l37.7,10.3c17.4,4.8,29.4,20.6,29.5,38.6V464h-24v-32h-16v32H160v-32h-16v32h-24V436.6z"/>
</svg>
