<?xml version="1.0" encoding="utf-8"?>
<!-- Generator: Adobe Illustrator 19.2.1, SVG Export Plug-In . SVG Version: 6.00 Build 0)  -->
<svg version="1.1" id="Layer_5" xmlns="http://www.w3.org/2000/svg" xmlns:xlink="http://www.w3.org/1999/xlink" x="0px" y="0px"
	 viewBox="0 0 512 512" style="enable-background:new 0 0 512 512;" xml:space="preserve">
<style type="text/css">
	.st0{fill:#FFFFFF;}
</style>
<path class="st0" d="M393,378.3l-82.1-33.6c-9.1-3.7-14.9-12.4-14.9-22.2v-5.7c24.6-17,43.4-41,54.1-68.8h1.9c22.1,0,40-17.9,40-40
	c0-5-1-9.7-2.7-14.1l3.4-3.3c7.5-7.1,12.4-16.3,13.5-18.7c10.2-16.1,12.6-35.5,6.6-53.4c-5.5-16.5-17.6-29.9-33.5-37.5
	c-2.6-17-12.1-32.3-26.5-42.5c-14.4-10.2-32.3-14.2-49.8-11.2C290.7,15,273.8,8,256,8s-34.7,7-47,19.3c-17.4-2.9-35.3,1-49.8,11.2
	c-14.4,10.2-23.9,25.4-26.5,42.5c-15.9,7.6-28,21.1-33.5,37.5c-6,17.9-3.6,37.3,6.6,53.4c1.1,2.3,5.8,11.2,13.1,18.3l4,3
	c-1.8,4.6-2.9,9.6-2.9,14.9c0,22.1,17.9,40,40,40h1.9c10.7,27.8,29.5,51.8,54.1,68.8v5.7c0,9.8-5.8,18.5-14.9,22.2L119,378.3
	C71,397.9,40,444.1,40,496v8h432v-8C472,444.1,441,397.9,393,378.3L393,378.3z M327.3,404.5l-32.5,24.4l21.6-64.7l4.6,1.9
	L327.3,404.5z M191.1,366.1l4.6-1.9l21.6,64.7l-32.5-24.4L191.1,366.1z M218,431.4l18.9,56.6h-1.6l-33-33L218,431.4z M210.4,357.9
	c1.8-0.9,3.5-2,5.1-3.1l40.5,40.5l40.5-40.5c1.6,1.2,3.3,2.2,5.1,3.1L258.2,488h-4.5L210.4,357.9z M294,431.4l15.7,23.6l-33,33h-1.6
	L294,431.4z M342.5,214.8c-0.6,3.8-1.3,7.6-2.3,11.6c-3.1,3.6-7.4,5.6-12.1,5.6h-33.2c-6.1,0-11.6-3.4-14.3-8.8l-3.6-7.2h-41.9
	l-3.6,7.2c-2.7,5.4-8.2,8.8-14.3,8.8H184c-4.7,0-9.1-2-12.1-5.6c-1-4-1.8-7.8-2.3-11.6h0c-1-6.5-1.5-13.2-1.5-20V176h176v18.8
	C344,201.6,343.5,208.3,342.5,214.8L342.5,214.8z M344,160h-52.7l21.9-21.9l30.8,18.5L344,160z M168,160v-3.5l30.8-18.5l21.9,21.9
	H168z M226.7,160l29.3-22l29.3,22H226.7z M355.3,231.7c0.5-1.8,0.9-3.7,1.3-5.6c0.3-1.4,0.6-2.7,0.8-4.1c1.6-8.9,2.6-17.9,2.6-27.2
	v-9.3c9.3,3.3,16,12.1,16,22.5C376,220.1,367,230,355.3,231.7L355.3,231.7z M129.6,178.3c-5.8-5.8-9.5-13.6-9.6-13.6l-0.5-1
	c-7.8-12-9.6-26.7-5.1-40.1c4.5-13.5,15-24.3,28.7-29.7l4.7-1.8l0.4-5c1-14.2,8.4-27.1,20.3-35.4c11.9-8.4,27.1-11.3,41.5-7.8
	l4.7,1.1l3.2-3.7c9.5-11,23.4-17.3,38.2-17.3s28.7,6.3,38.2,17.3l3.2,3.7l4.7-1.1c14.4-3.5,29.5-0.6,41.5,7.8
	c11.9,8.4,19.2,21.3,20.3,35.4l0.4,5l4.7,1.8c13.7,5.4,24.1,16.2,28.7,29.7c4.5,13.4,2.6,28-5.1,40.1l-0.5,1c0,0.1-4,8.4-10.3,14.4
	l-1.1,1.1c-5.5-5.6-12.6-9.6-20.6-11.3v-21.3l-49.2-29.5l-23.5,23.5L256,118l-31.2,23.4l-23.5-23.5L152,147.5v21.3
	c-7.8,1.6-14.9,5.5-20.3,11L129.6,178.3z M136,208c0-10.4,6.7-19.2,16-22.5v9.3c0,9.3,1,18.3,2.6,27.2c0.3,1.4,0.5,2.7,0.8,4.1
	c0.4,1.9,0.8,3.7,1.3,5.6C145,230,136,220.1,136,208L136,208z M179,247.6c1.6,0.3,3.3,0.4,5,0.4h33.2c11.6,0,22-6.1,27.7-16h22.2
	c5.7,9.9,16.2,16,27.7,16H328c1.7,0,3.4-0.2,5-0.4c-14.3,33-41.7,59.4-77,72C220.7,307,193.3,280.5,179,247.6L179,247.6z
	 M253.5,335.6l2.5,0.8l2.5-0.8c7.6-2.5,14.8-5.6,21.8-9.2c0.6,6,2.4,11.6,5.4,16.6L256,372.7L226.3,343c3-5,4.8-10.6,5.4-16.6
	C238.6,330,245.9,333.1,253.5,335.6L253.5,335.6z M125.1,393.1l48.6-19.9l-6.4,38.3l29.8,22.4L181.7,457l31,31H136v-48h-16v48H56.3
	C59.3,446,85.6,409.3,125.1,393.1L125.1,393.1z M392,488v-48h-16v48h-76.7l31-31l-15.4-23.2l29.8-22.4l-6.4-38.3l48.6,19.9
	c39.5,16.2,65.8,52.8,68.8,94.9L392,488L392,488z"/>
</svg>
